<?xml version="1.0" encoding="utf-8"?>
<!-- Generator: Adobe Illustrator 21.1.0, SVG Export Plug-In . SVG Version: 6.00 Build 0)  -->
<svg version="1.1" id="Layer_1" xmlns="http://www.w3.org/2000/svg" xmlns:xlink="http://www.w3.org/1999/xlink" x="0px" y="0px"
	 viewBox="0 0 300 150" style="enable-background:new 0 0 300 150;" xml:space="preserve">
<style type="text/css">
	.st0{fill:#1A1A1A;}
	.st1{display:none;fill:#1A1A1A;}
	.st2{display:none;fill-rule:evenodd;clip-rule:evenodd;fill:#1A1A1A;}
</style>
<path id="KMS" class="st0" d="M76.3,98.2h-7.5V51.8h7.5V98.2z M112.7,53.1h-9.4l-27,23.2l28,21.9h9.4L85.6,76.3L112.7,53.1z
	 M117.8,98.2h7.5V59.8c7.9-5.6,23.1-3.2,23.1,7.6l0,30.8h7.7l0-34.1c0-1.3-0.3-2.5-0.7-3.6c7.9-6.4,23.9-4,23.9,7v30.8h7.7V64.1
	c0-11.3-17.8-16.7-34.6-7.8c-6.4-5.7-20.3-7-34.5,2.1V98.2z M201.1,63.4c0-6.4,12.4-9.9,23.7-4.1l3.3-4.4
	c-16.3-7.8-34.7-3.2-34.7,9.6c0,16.3,30.4,9.3,30.3,21.3c0,4.4-6.3,7.8-14,7.8c-5.2,0-10-1.5-14-4l-3.2,4.3
	c15.9,10.1,38.7,4.4,38.8-8.9C231.2,66.2,201.1,74.6,201.1,63.4z"/>
<path id="Kao" class="st1" d="M64.9,106.8l1.2-1.4c1.1,0.9,2.1,1.4,3.5,1.4c1.2,0,2-0.6,2-1.4v0c0-0.8-0.4-1.2-2.5-1.7
	c-2.4-0.6-3.7-1.3-3.7-3.3v0c0-1.9,1.6-3.2,3.8-3.2c1.6,0,2.9,0.5,4,1.4l-1,1.5c-1-0.7-2-1.1-3-1.1c-1.1,0-1.8,0.6-1.8,1.3v0
	c0,0.9,0.5,1.2,2.6,1.7c2.3,0.6,3.5,1.4,3.5,3.2v0c0,2.1-1.6,3.3-4,3.3C67.9,108.5,66.3,107.9,64.9,106.8z M81.3,97.2h1.8l4.9,11.1
	h-2.1l-1.1-2.7h-5.2l-1.1,2.7l-2,0L81.3,97.2z M84,104l-1.9-4.4l-1.9,4.4H84z M92.2,97.3h1.9v9.3h5.8v1.8h-7.8V97.3z M102.7,102.9
	L102.7,102.9c0-3.1,2.4-5.8,5.8-5.8c3.4,0,5.8,2.6,5.8,5.7v0c0,3.1-2.4,5.7-5.8,5.7C105.1,108.6,102.7,106,102.7,102.9z
	 M112.2,102.9L112.2,102.9c0-2.2-1.6-4-3.8-4c-2.2,0-3.7,1.8-3.7,3.9v0c0,2.2,1.6,3.9,3.8,3.9C110.7,106.8,112.2,105,112.2,102.9z
	 M119.2,97.3h1.8l5.9,7.7v-7.7h1.9v11.1h-1.6l-6.1-7.9v7.9h-1.9V97.3z M143.3,97.3h4.1c3.5,0,5.9,2.4,5.9,5.5v0
	c0,3.1-2.4,5.5-5.9,5.5h-4.1V97.3z M145.2,99.1v7.5h2.2c2.3,0,3.8-1.6,3.8-3.7v0c0-2.2-1.5-3.8-3.8-3.8H145.2z M157.5,97.3h1.9v11.1
	h-1.9V97.3z M163.9,97.3h2.1l3.3,8.5l3.3-8.5h2.1l-4.6,11.1h-1.7L163.9,97.3z M179,97.3h1.9v11.1H179V97.3z M185.5,106.8l1.2-1.4
	c1.1,0.9,2.1,1.4,3.5,1.4c1.2,0,2-0.6,2-1.4v0c0-0.8-0.4-1.2-2.5-1.7c-2.4-0.6-3.7-1.3-3.7-3.3v0c0-1.9,1.6-3.2,3.8-3.2
	c1.6,0,2.9,0.5,4,1.4l-1,1.5c-1-0.7-2-1.1-3-1.1c-1.1,0-1.8,0.6-1.8,1.3v0c0,0.9,0.5,1.2,2.6,1.7c2.3,0.6,3.5,1.4,3.5,3.2v0
	c0,2.1-1.6,3.3-4,3.3C188.4,108.5,186.8,107.9,185.5,106.8z M199.4,97.3h1.9v11.1h-1.9V97.3z M206.2,102.9L206.2,102.9
	c0-3.1,2.4-5.8,5.8-5.8c3.4,0,5.8,2.6,5.8,5.7v0c0,3.1-2.4,5.7-5.8,5.7C208.6,108.6,206.2,106,206.2,102.9z M215.7,102.9
	L215.7,102.9c0-2.2-1.6-4-3.8-4c-2.2,0-3.7,1.8-3.7,3.9v0c0,2.2,1.6,3.9,3.8,3.9C214.2,106.8,215.7,105,215.7,102.9z M222.6,97.3
	h1.8l5.9,7.7v-7.7h1.9v11.1h-1.6l-6.1-7.9v7.9h-1.9V97.3z M170.3,66.4c0-15.7-13.3-22.5-26.8-22.5c-10.5,0-19.8,3.7-24.1,9l8.6,0
	c0.7,0,1.6,0,2.5-0.9c2.9-2.9,7.8-4,13-4c5.8,0,11.8,3.1,14.1,8.2c0.7,1.7,1.3,4,1.4,9.3c0.1,4-0.5,8.3-1.4,10.7
	c-1.6,4.1-6.6,8.3-14.7,8.3c-8.4,0-14.7-5.3-14.7-11.6c0-8.3,11.8-12.1,23.5-11.3c0.1-1.5-6.2-3.2-12.4-2.9
	c-13.8,0.6-22.7,6-22.7,14.2c0,7.9,8.7,15.8,26.1,15.8c6.9,0,14.3-2.2,18.3-5.6c1.7,1.9,4.2,3.1,7.1,3.1h2.2L170.3,66.4z
	 M114.3,43.8h-2.2c-4.4,0-7.7,1.1-11.3,3.6C99,48.6,76.4,65.1,76.4,65.1l0-12.9c0-7.8-5.8-8.6-8.5-8.6h-2.6l-0.1,34.7
	c0,7.3,7.5,7.7,9,7.7l2.2,0l0-20.4c0,0,10.9,9.2,20.6,16.6c3.2,2.4,7.7,3.9,13.9,3.9l6.6,0C108.7,79.5,87.8,63,87.8,63L114.3,43.8z
	 M206.3,41.4c-15.9,0-28.8,10.5-28.8,23.6c0,13.1,12.8,23.7,28.7,23.7c15.9,0,28.8-10.5,28.8-23.6C235.1,52.1,222.2,41.5,206.3,41.4
	 M206.3,84.6c-10.9,0-17.2-8.8-17.2-19.5c0-10.8,6.4-19.5,17.2-19.5c10.9,0,17.2,8.8,17.2,19.6C223.5,75.9,217.1,84.6,206.3,84.6"/>
<path id="Goldwell" class="st2" d="M254.1,81.8h6.2v6.2h-6.2V81.8L254.1,81.8L254.1,81.8z M252.3,88.1v-6.2h-11.4l0-20h-8.4v26.3
	H252.3L252.3,88.1L252.3,88.1z M230.7,88.1v-6.2h-11.4l0-20h-8.4v26.3H230.7L230.7,88.1L230.7,88.1z M209.1,88.1v-5.7h-10.8v-4.4h8
	v-5.7h-8v-4.7h9.8l0-5.7h-18.2v26.3H209.1L209.1,88.1L209.1,88.1z M163.3,88.1l4.8-16.7l4.8,16.7l6.4,0l9.3-26.3h-7.9l-5,13.6
	l-3.7-13.6h-8l-3.7,13.6l-5-13.6h-7.9l9.2,26.3L163.3,88.1L163.3,88.1L163.3,88.1z M84.9,88.5L84.9,88.5L84.9,88.5
	c-9.1,0-15.1-3.6-15.1-13.6c0-10,5.9-13.6,15.1-13.6c9.1,0,15.1,3.6,15.1,13.6C100,84.9,94.1,88.5,84.9,88.5L84.9,88.5z M91.8,74.9
	L91.8,74.9c0-5.2-1.9-7.4-6.9-7.4c-5,0-6.9,2.2-6.9,7.4c0,5.2,1.9,7.4,6.9,7.4C89.9,82.3,91.8,80.1,91.8,74.9L91.8,74.9z M67.5,63.7
	c-4.5-2.2-9.3-2.3-11.7-2.3c-9.3,0-16.1,4.9-16.1,14.3c0,10,7.5,12.9,16.6,12.9c4.3,0,7.9-0.8,12.2-1.8l0-12.9l-11.8,0l0,5.2l5,0
	l0,3.3c-2,0.7-3,0.8-5,0.8c-5.4,0-9-2.1-8.9-7.7c0.1-5.5,3.5-7.6,9.2-7.7c3.9,0,6.6,1.1,8.2,1.5L67.5,63.7L67.5,63.7L67.5,63.7z
	 M121.4,88.1v-6.2H110l0-20h-8.4v26.3H121.4L121.4,88.1L121.4,88.1z M123.2,88.1L123.2,88.1L123.2,88.1V61.8h13
	c7.2,0,13.8,4.5,13.8,13.1c0,8.6-6.6,13.1-13.8,13.1H123.2L123.2,88.1z M131.6,67.8L131.6,67.8v14.3h4.1c4.3,0,6.2-2.8,6.2-7.1
	c0-4.3-1.9-7.1-6.2-7.1H131.6L131.6,67.8z"/>
</svg>
